Coordinates
version=1
nRows=16
nColumns=28
inDegrees=yes

Units are S.I. units (second, meters, Newtons, ...)
Angles are in degrees.

endheader
time	pelvis_tilt	pelvis_list	pelvis_rotation	pelvis_tx	pelvis_ty	pelvis_tz	hip_flexion_r	hip_adduction_r	hip_rotation_r	knee_angle_r	ankle_angle_r	subtalar_angle_r	mtp_angle_r	hip_flexion_l	hip_adduction_l	hip_rotation_l	knee_angle_l	socket_flexion	socket_adduction	socket_rotation	socket_tx	socket_ty	socket_tz	foot_flex	lumbar_extension	lumbar_bending	lumbar_rotation
      0.31666667	      2.44402556	     -2.17622176	     -5.12821299	     -0.41787443	      1.03160002	      0.26710603	     13.75922638	      2.04075339	     -2.64593847	    -60.37878410	     11.38799983	    -15.90106297	     -2.99594149	     -2.52574115	     -3.60396626	    -10.15170403	     -1.42401243	      0.65612138	      5.06408139	     18.78750740	     -0.00481907	     -0.00781303	     -0.00434363	     -0.61930467	    -11.85959224	     -1.02295645	      3.04671837
      0.32083333	      2.48560708	     -2.18121721	     -5.03794831	     -0.41327939	      1.03205603	      0.26698792	     14.29058135	      2.06347798	     -2.70937553	    -59.93222183	     11.45144821	    -15.92712273	     -3.02386625	     -2.75457326	     -3.57498133	    -10.19138747	     -1.46462835	      0.69160848	      5.06379607	     18.82017380	     -0.00400186	     -0.00745003	     -0.00433371	     -0.55283440	    -12.05870229	     -1.01352245	      3.04830184
      0.32500000	      2.45588011	     -2.30396877	     -4.85771049	     -0.40749738	      1.03263172	      0.26654343	     14.62649849	      2.17051112	     -2.88951520	    -59.11731997	     11.74721423	    -16.02939002	     -3.13722097	     -3.18318846	     -3.55491765	    -10.19804512	     -1.35604747	      0.65471889	      4.92467084	     19.04025921	     -0.00446272	     -0.00717685	     -0.00303000	     -0.24177834	    -11.93983763	     -0.83864142	      3.02637589
      0.32916667	      2.49475163	     -2.31924353	     -4.76751068	     -0.40300466	      1.03288860	      0.26642509	     15.16385496	      2.19859962	     -2.97288266	    -58.66512572	     11.83635021	    -16.04389950	     -3.15962407	     -3.42192294	     -3.55444476	    -10.23667448	     -1.38461450	      0.67705249	      4.93420966	     19.08299547	     -0.00385417	     -0.00698471	     -0.00317930	     -0.22168826	    -12.15447698	     -0.80376442	      3.01001870
      0.33333333	      2.88747334	     -3.29106100	     -4.25574547	     -0.39693403	      1.03377720	      0.26587722	     14.73257724	      3.17545578	     -3.59916581	    -57.43028223	     12.72591322	    -15.70524457	     -4.42251243	     -4.51411210	     -4.97797266	    -10.18154603	     -1.19861400	      0.38562519	      5.37348526	     19.58459321	     -0.00648017	     -0.00769981	     -0.00697503	     -0.10013666	    -12.57492782	      0.43689977	      2.25683404
      0.33750000	      2.88620533	     -3.30829952	     -4.16422615	     -0.39178069	      1.03413592	      0.26566765	     15.14194007	      3.17959059	     -3.70477089	    -56.69466893	     12.86778580	    -15.82679476	     -4.54934228	     -4.80607309	     -4.91829156	    -10.26386934	     -1.18938805	      0.39591623	      5.32020242	     19.63273776	     -0.00608323	     -0.00739952	     -0.00654888	      0.05838126	    -12.59869614	      0.46976248	      2.28596439
      0.34166667	      2.87167996	     -3.36392299	     -4.04126832	     -0.38657790	      1.03444369	      0.26545260	     15.53483991	      3.22990566	     -3.83533194	    -55.91479451	     13.06018799	    -15.93311689	     -4.68321327	     -5.14643057	     -4.91684186	    -10.28366968	     -1.12709525	      0.36763078	      5.26312782	     19.78520112	     -0.00619635	     -0.00713110	     -0.00606164	      0.19319834	    -12.60936981	      0.55120582	      2.28359253
      0.34583333	      2.87367728	     -3.43792548	     -3.92288563	     -0.38138603	      1.03470098	      0.26525224	     15.89813570	      3.28292111	     -4.00432384	    -55.10478176	     13.25738361	    -16.01574178	     -4.81750467	     -5.48762572	     -4.96465756	    -10.32783554	     -1.08383202	      0.33908112	      5.24609415	     19.90315408	     -0.00620009	     -0.00693911	     -0.00594994	      0.30941391	    -12.63546312	      0.66233646	      2.25086903
      0.35000000	      2.87454182	     -3.54188761	     -3.76427426	     -0.37615325	      1.03493957	      0.26502837	     16.21489936	      3.37539545	     -4.18877738	    -54.21868734	     13.47430511	    -16.09141293	     -4.97716860	     -5.85753275	     -5.07132439	    -10.35726829	     -1.01999013	      0.29173876	      5.23801911	     20.05537845	     -0.00650496	     -0.00678246	     -0.00596357	      0.44110163	    -12.65724425	      0.81504505	      2.19155340
      0.35416667	      3.34958531	     -4.48209466	     -3.32417745	     -0.37100129	      1.03560689	      0.26484790	     15.80001253	      4.37160054	     -4.72005272	    -52.95478141	     13.86053385	    -16.20620306	     -6.60527335	     -6.82676737	     -6.61708379	    -10.35679659	     -0.94755681	      0.03177192	      5.82558804	     20.42754925	     -0.00829907	     -0.00744560	     -0.01104012	      0.49181363	    -13.32798148	      1.98248538	      1.59205880
      0.35833333	      3.32368742	     -4.44420373	     -3.28791446	     -0.36600707	      1.03575363	      0.26485848	     16.18957763	      4.32800454	     -4.80477064	    -52.08330804	     14.00635209	    -16.31094580	     -6.70173292	     -7.07362365	     -6.54315817	    -10.43819644	     -0.94935988	      0.03605225	      5.81033746	     20.45139643	     -0.00782292	     -0.00709943	     -0.01094088	      0.62831870	    -13.33284215	      1.93160758	      1.62468718
      0.36250000	      3.28021642	     -4.43707226	     -3.20206603	     -0.36089555	      1.03584220	      0.26473920	     16.55714830	      4.31042817	     -4.91249041	    -51.15732581	     14.16738835	    -16.42327388	     -6.81340274	     -7.36877659	     -6.49743851	    -10.47814930	     -0.89916027	      0.01083802	      5.76859644	     20.55809876	     -0.00789594	     -0.00683190	     -0.01067536	      0.76549220	    -13.30927979	      1.93271694	      1.64800948
      0.36666667	      3.23989887	     -4.44777539	     -3.11352789	     -0.35578694	      1.03589321	      0.26464969	     16.89752157	      4.30330153	     -5.06315980	    -50.18287528	     14.32416702	    -16.53274082	     -6.93372296	     -7.67375650	     -6.48543172	    -10.52568655	     -0.84761170	     -0.02298502	      5.74511147	     20.65796110	     -0.00802047	     -0.00660464	     -0.01048019	      0.89072332	    -13.28398422	      1.96370084	      1.65415602
      0.37083333	      3.56583742	     -5.23644578	     -2.74382465	     -0.35052401	      1.03628184	      0.26450795	     16.59823264	      5.15379148	     -5.49720102	    -48.77783113	     14.49606011	    -17.01786596	     -8.77137843	     -8.57956120	     -7.74559001	    -10.52075411	     -0.70704901	     -0.29683691	      6.18422920	     20.94375167	     -0.01038788	     -0.00710165	     -0.01400460	      0.97643591	    -13.72913576	      2.92902515	      1.34838889
      0.37500000	      3.51126140	     -5.15773732	     -2.71958390	     -0.34560572	      1.03624929	      0.26456202	     16.95528255	      5.07538135	     -5.56176573	    -47.77550527	     14.66977594	    -17.09960494	     -8.85372263	     -8.80168704	     -7.66060997	    -10.60628465	     -0.70577944	     -0.29962281	      6.17764943	     20.95331050	     -0.01008518	     -0.00676022	     -0.01420333	      1.11323199	    -13.70711849	      2.84254273	      1.37643528
      0.37916667	      3.44033839	     -5.11118978	     -2.65512052	     -0.34057370	      1.03615143	      0.26454798	     17.29076555	      5.02247468	     -5.66204318	    -46.71769614	     14.83074679	    -17.18981960	     -8.95375813	     -9.07088943	     -7.58735513	    -10.65086400	     -0.65491176	     -0.33063240	      6.14945735	     21.04357691	     -0.01023737	     -0.00651370	     -0.01395522	      1.24994053	    -13.64959631	      2.79592147	      1.40123425
